<?xml version="1.0" encoding="UTF-8" standalone="no"?>
<!-- Created with Inkscape (http://www.inkscape.org/) -->

<svg
   width="128"
   height="128"
   viewBox="0 0 33.866666 33.866668"
   version="1.1"
   id="svg8"
   inkscape:version="1.1 (c68e22c387, 2021-05-23)"
   sodipodi:docname="ICON_MAP_PLANE.svg"
   inkscape:export-filename="D:\staton_KH_Main\SRC\KittyHawk\html_UI\Pages\VCockpit\Instruments\FA18\DDI\Images\ICON_MAP_PLANE.png"
   inkscape:export-xdpi="96"
   inkscape:export-ydpi="96"
   xmlns:inkscape="http://www.inkscape.org/namespaces/inkscape"
   xmlns:sodipodi="http://sodipodi.sourceforge.net/DTD/sodipodi-0.dtd"
   xmlns="http://www.w3.org/2000/svg"
   xmlns:svg="http://www.w3.org/2000/svg"
   xmlns:rdf="http://www.w3.org/1999/02/22-rdf-syntax-ns#"
   xmlns:cc="http://creativecommons.org/ns#"
   xmlns:dc="http://purl.org/dc/elements/1.1/">
  <defs
     id="defs2" />
  <sodipodi:namedview
     id="base"
     pagecolor="#ffffff"
     bordercolor="#666666"
     borderopacity="1.0"
     inkscape:pageopacity="0.0"
     inkscape:pageshadow="2"
     inkscape:zoom="5.6"
     inkscape:cx="60"
     inkscape:cy="84.732143"
     inkscape:document-units="mm"
     inkscape:current-layer="layer1"
     showgrid="false"
     units="px"
     inkscape:measure-start="0,0"
     inkscape:measure-end="0,0"
     inkscape:window-width="1920"
     inkscape:window-height="1017"
     inkscape:window-x="1072"
     inkscape:window-y="394"
     inkscape:window-maximized="1"
     inkscape:pagecheckerboard="0" />
  <metadata
     id="metadata5">
    <rdf:RDF>
      <cc:Work
         rdf:about="">
        <dc:format>image/svg+xml</dc:format>
        <dc:type
           rdf:resource="http://purl.org/dc/dcmitype/StillImage" />
      </cc:Work>
    </rdf:RDF>
  </metadata>
  <g
     inkscape:label="Calque 1"
     inkscape:groupmode="layer"
     id="layer1"
     transform="translate(0,-263.13332)">
    <path
       style="fill:#00ff00;fill-opacity:1;fill-rule:nonzero;stroke:#000000;stroke-width:2.20000003;stroke-linecap:round;stroke-linejoin:round;stroke-miterlimit:4;stroke-dasharray:none;stroke-dashoffset:0;stroke-opacity:1;paint-order:markers stroke fill"
       d="M 61.283203 40.09375 L 61.283203 59.646484 L 66.716797 59.646484 L 66.716797 40.09375 L 61.283203 40.09375 z M 20.4375 61.283203 L 20.4375 66.716797 L 59.158203 66.716797 L 59.158203 61.283203 L 20.4375 61.283203 z M 68.228516 61.283203 L 68.228516 66.716797 L 107.5625 66.716797 L 107.5625 61.283203 L 68.228516 61.283203 z M 61.283203 68.716797 L 61.283203 107.27539 L 66.716797 107.27539 L 66.716797 68.716797 L 61.283203 68.716797 z M 49.871094 108.91211 L 49.871094 114.3457 L 59.283203 114.3457 L 59.283203 108.91211 L 49.871094 108.91211 z M 68.353516 108.91211 L 68.353516 114.3457 L 78.128906 114.3457 L 78.128906 108.91211 L 68.353516 108.91211 z M 61.283203 116.3457 L 61.283203 127.2207 L 66.716797 127.2207 L 66.716797 116.3457 L 61.283203 116.3457 z "
       transform="matrix(0.26458333,0,0,0.26458333,0,263.13332)"
       id="rect822-7" />
  </g>
</svg>
