<svg xmlns="http://www.w3.org/2000/svg" version="1.2" baseProfile="tiny" width="158" height="108" viewBox="21 46 158 108"><path d="M25,50 l150,0 0,100 -150,0 z" stroke-width="4" stroke="black" fill="rgb(128,224,255)" fill-opacity="1" ></path><path d="m 160,135 0,15 15,0 0,-15 z m -135,0 15,0 0,15 -15,0 z m 135,-85 0,15 15,0 0,-15 z m -135,0 15,0 0,15 -15,0 z" stroke-width="4" stroke="none" fill="black" ></path><path d="m 90,60 0,22.7 -19.7,-11.3 -10,17.3 L 80,100 l -19.7,11.3 10,17.3 L 90,117.3 90,140 l 20,0 0,-22.7 19.7,11.3 10,-17.3 L 120,100 l 19.7,-11.3 -10,-17.3 L 110,82.7 110,60 90,60 z" stroke-width="4" stroke="black" fill="black" ></path></svg>