<svg xmlns="http://www.w3.org/2000/svg" version="1.2" baseProfile="tiny" width="158" height="108" viewBox="21 46 158 108"><path d="M25,50 l150,0 0,100 -150,0 z" stroke-width="4" stroke="black" fill="rgb(128,224,255)" fill-opacity="1" ></path><path d="M 100 65 L 115.2 91.3 L 130.3 117.5 C 133.3 112.4 135 106.4 135 100 C 135 80.7 119.3 65 100 65 z M 100 65 C 80.7 65 65 80.7 65 100 C 65 106.4 66.7 112.4 69.7 117.5 L 84.8 91.3 L 100 65 z M 69.7 117.5 C 75.7 128 87 135 100 135 C 113 135 124.3 128 130.3 117.5 L 100 117.5 L 69.7 117.5 z" stroke-width="4" stroke="black" fill="black" ></path><path d="M 69.7,117.5 100,65 l 30.3,52.5 z" stroke-width="4" stroke="none" fill="none" ></path></svg>