<svg xmlns="http://www.w3.org/2000/svg" version="1.2" baseProfile="tiny" width="118" height="118" viewBox="41 41 118 118"><path d="M45,45 l110,0 0,110 -110,0 z" stroke-width="4" stroke="black" fill="rgb(255,161,255)" fill-opacity="1" ></path><path d="m 90,125 c 0,-4.1 -3.4,-7.5 -7.5,-7.5 -4.1,0 -7.5,3.4 -7.5,7.5 0,4.1 3.4,7.5 7.5,7.5 4.1,0 7.5,-3.4 7.5,-7.5 z m 35,0 c 0,-4.1 -3.4,-7.5 -7.5,-7.5 -4.1,0 -7.5,3.4 -7.5,7.5 0,4.1 3.4,7.5 7.5,7.5 4.1,0 7.5,-3.4 7.5,-7.5 z m -35,0 20,0 m 15,0 5,0 0,-20 0,-20 -20,0 -20,0 0,20 -20,0 0,20 5,0" stroke-width="4" stroke="black" fill="none" ></path><path d="m 95,90 0,15 10,0 0,-15 z" stroke-width="2" stroke="black" fill="none" ></path><path d="m 106,105 0,20 m -12,-20 0,20 m 6,-20 0,20" stroke-width="4" stroke="black" fill="none" ></path></svg>