<svg width="128" height="128" viewBox="0 0 128 128" fill="none" xmlns="http://www.w3.org/2000/svg">
<path d="M64 21V2M64 126V108M107 64H126M2 64H20M109 64C109 88.8528 88.8528 109 64 109C39.1472 109 19 88.8528 19 64C19 39.1472 39.1472 19 64 19C88.8528 19 109 39.1472 109 64Z" stroke="black" stroke-width="9"/>
<path d="M64 21V2M64 126V108M107 64H126M2 64H20M109 64C109 88.8528 88.8528 109 64 109C39.1472 109 19 88.8528 19 64C19 39.1472 39.1472 19 64 19C88.8528 19 109 39.1472 109 64Z" stroke="white" stroke-width="4"/>
</svg>
