<svg width="128" height="128" viewBox="0 0 128 128" fill="none" xmlns="http://www.w3.org/2000/svg">
<path d="M64.979 11.0424L76.9226 50.7428C76.9709 50.9034 77.0966 51.0291 77.2572 51.0775L116.911 63.0212C117.385 63.1641 117.385 63.8359 116.911 63.9788L77.2571 75.9225C77.0965 75.9709 76.9709 76.0966 76.9225 76.2572L64.9786 115.958C64.8358 116.432 64.1638 116.432 64.021 115.958L52.0774 76.2572C52.0291 76.0966 51.9034 75.9709 51.7428 75.9225L12.0895 63.9788C11.6151 63.8359 11.6151 63.1641 12.0895 63.0212L51.7429 51.0775C51.9035 51.0291 52.0291 50.9034 52.0775 50.7428L64.0214 11.0424C64.1642 10.5678 64.8362 10.5678 64.979 11.0424Z" stroke="black" stroke-width="9"/>
<path d="M64.979 11.0424L76.9226 50.7428C76.9709 50.9034 77.0966 51.0291 77.2572 51.0775L116.911 63.0212C117.385 63.1641 117.385 63.8359 116.911 63.9788L77.2571 75.9225C77.0965 75.9709 76.9709 76.0966 76.9225 76.2572L64.9786 115.958C64.8358 116.432 64.1638 116.432 64.021 115.958L52.0774 76.2572C52.0291 76.0966 51.9034 75.9709 51.7428 75.9225L12.0895 63.9788C11.6151 63.8359 11.6151 63.1641 12.0895 63.0212L51.7429 51.0775C51.9035 51.0291 52.0291 50.9034 52.0775 50.7428L64.0214 11.0424C64.1642 10.5678 64.8362 10.5678 64.979 11.0424Z" stroke="Magenta" stroke-width="4"/>
</svg>
