<svg width="128" height="128" viewBox="0 0 128 128" fill="none" xmlns="http://www.w3.org/2000/svg">
<path d="M110 63C110 88.4051 89.4051 109 64 109C38.5949 109 18 88.4051 18 63C18 37.5949 38.5949 17 64 17C89.4051 17 110 37.5949 110 63Z" stroke="black" stroke-width="10"/>
<path d="M86 63C86 75.1503 76.1503 85 64 85C51.8497 85 42 75.1503 42 63C42 50.8497 51.8497 41 64 41C76.1503 41 86 50.8497 86 63Z" stroke="black" stroke-width="10"/>
<path d="M86 63C86 75.1503 76.1503 85 64 85C51.8497 85 42 75.1503 42 63C42 50.8497 51.8497 41 64 41C76.1503 41 86 50.8497 86 63Z" fill="white"/>
<path d="M110 63C110 88.4051 89.4051 109 64 109C38.5949 109 18 88.4051 18 63C18 37.5949 38.5949 17 64 17C89.4051 17 110 37.5949 110 63Z" stroke="white" stroke-width="4"/>
<path d="M86 63C86 75.1503 76.1503 85 64 85C51.8497 85 42 75.1503 42 63C42 50.8497 51.8497 41 64 41C76.1503 41 86 50.8497 86 63Z" stroke="white" stroke-width="4"/>
</svg>
