<svg width="128" height="128" viewBox="0 0 128 128" fill="none" xmlns="http://www.w3.org/2000/svg">
<path d="M49.2565 109.5L49.1998 85.1242C49.1997 85.0426 49.1795 84.9624 49.1412 84.8904L33.8254 56.1293C33.7804 56.0449 33.7122 55.9751 33.6288 55.9283L12.4413 44.0349C12.1976 43.9051 12.1051 43.6023 12.2349 43.3586L27.0912 15.4445C27.2216 15.1995 27.5265 15.1076 27.7706 15.2397L48.5 27H82L102.378 16.2352C102.621 16.1053 102.924 16.1976 103.054 16.4412L116.693 42.0337C116.823 42.2774 116.731 42.5802 116.487 42.7101L96.2059 53.5188C96.1183 53.5655 96.0466 53.6371 95.9999 53.7247L79.3157 84.8894C79.2769 84.962 79.2565 85.0431 79.2565 85.1254V109.5C79.2565 109.776 79.0327 110 78.7565 110H49.7565C49.4804 110 49.2565 109.776 49.2565 109.5Z" stroke="white" stroke-width="4"/>
</svg>
