<svg width="128" height="128" viewBox="0 0 128 128" fill="none" xmlns="http://www.w3.org/2000/svg">
<path d="M50.5 85V109.5C50.5 109.776 50.7239 110 51 110H80C80.2761 110 80.5 109.776 80.5 109.5V85M49.4072 27.8717L27.7795 16.3611C27.5357 16.2314 27.2329 16.3238 27.1032 16.5676L13.4784 42.1677C13.3487 42.4114 13.4411 42.7142 13.6849 42.844L35.3125 54.3546M96.1095 54.2328L117.731 42.7101C117.974 42.5802 118.067 42.2774 117.937 42.0337L104.298 16.4412C104.168 16.1976 103.865 16.1053 103.621 16.2352L82 27.7579M50.7433 27H80.2567C80.4415 27 80.6112 27.1019 80.6981 27.265L95.8748 55.765C95.9531 55.9119 95.9531 56.0881 95.8748 56.235L80.6981 84.735C80.6112 84.8981 80.4415 85 80.2567 85H50.7433C50.5585 85 50.3888 84.8981 50.3019 84.735L35.1251 56.235C35.0469 56.0881 35.0469 55.9119 35.1251 55.765L50.3019 27.265C50.3888 27.1019 50.5585 27 50.7433 27Z" stroke="black" stroke-width="9"/>
<path d="M50.5 85V109.5C50.5 109.776 50.7239 110 51 110H80C80.2761 110 80.5 109.776 80.5 109.5V85M49.4072 27.8717L27.7795 16.3611C27.5357 16.2314 27.2329 16.3238 27.1032 16.5676L13.4784 42.1677C13.3487 42.4114 13.4411 42.7142 13.6849 42.844L35.3125 54.3546M96.1095 54.2328L117.731 42.7101C117.974 42.5802 118.067 42.2774 117.937 42.0337L104.298 16.4412C104.168 16.1976 103.865 16.1053 103.621 16.2352L82 27.7579M50.7433 27H80.2567C80.4415 27 80.6112 27.1019 80.6981 27.265L95.8748 55.765C95.9531 55.9119 95.9531 56.0881 95.8748 56.235L80.6981 84.735C80.6112 84.8981 80.4415 85 80.2567 85H50.7433C50.5585 85 50.3888 84.8981 50.3019 84.735L35.1251 56.235C35.0469 56.0881 35.0469 55.9119 35.1251 55.765L50.3019 27.265C50.3888 27.1019 50.5585 27 50.7433 27Z" stroke="white" stroke-width="4"/>
</svg>
